<svg width="796" height="796" viewBox="0 0 796 796" fill="none" xmlns="http://www.w3.org/2000/svg">
<circle cx="398" cy="398" r="398" fill="#FCF9CE"/>
<path d="M254.647 170.153C276.217 177.432 296.729 187.529 315.653 200.182C342.395 193.337 369.896 189.903 397.5 189.962C426.007 189.962 453.51 193.522 479.29 200.154C498.206 187.512 518.709 177.425 540.267 170.153C560.276 163.349 588.784 152.325 605.722 171.072C617.205 183.818 620.076 205.177 622.114 221.484C624.411 239.685 624.956 263.398 618.927 286.939C641.98 316.709 655.875 352.222 655.875 390.92C655.875 449.543 624.124 500.443 577.128 535.697C554.5 552.431 529.419 565.563 502.774 574.625C508.917 588.692 512.333 604.252 512.333 620.587V706.712C512.333 714.326 509.309 721.628 503.925 727.012C498.541 732.396 491.239 735.42 483.625 735.42H311.375C303.761 735.42 296.459 732.396 291.075 727.012C285.691 721.628 282.667 714.326 282.667 706.712V678.262C255.25 681.621 232.255 678.635 212.705 670.339C192.264 661.669 178.025 648.233 167.317 635.372C157.154 623.2 146.072 595.754 130.053 590.415C126.475 589.223 123.167 587.339 120.318 584.869C117.468 582.399 115.133 579.393 113.446 576.02C110.038 569.21 109.475 561.324 111.881 554.099C114.287 546.873 119.465 540.899 126.275 537.491C133.086 534.083 140.971 533.52 148.197 535.926C167.317 542.299 179.776 556.079 188.302 567.161C202.082 584.96 213.279 608.214 235.097 617.487C244.083 621.305 257.26 623.802 277.872 620.989L282.667 620.013C282.733 604.391 285.986 588.947 292.227 574.625C265.582 565.563 240.5 552.431 217.872 535.697C170.876 500.443 139.125 449.572 139.125 390.92C139.125 352.279 152.991 316.796 175.987 287.054C169.958 263.513 170.475 239.742 172.771 221.513L172.915 220.422C175.01 203.713 177.451 184.048 189.164 171.072C206.102 152.325 234.638 163.378 254.619 170.182L254.647 170.153Z" fill="#EC361E"/>
</svg>
