<svg width="796" height="796" viewBox="0 0 796 796" fill="none" xmlns="http://www.w3.org/2000/svg">
<circle cx="398" cy="398" r="398" fill="#FCF9CE"/>
<path fill-rule="evenodd" clip-rule="evenodd" d="M140.708 614.667V596.115C140.708 577.563 154.196 555.95 170.879 547.798L324.171 472.994C346.406 462.16 351.579 438.11 335.546 419.098L325.742 407.479C305.809 383.863 289.667 339.771 289.667 308.896V262.583C289.667 233.852 301.08 206.297 321.397 185.98C341.713 165.664 369.268 154.25 398 154.25C426.732 154.25 454.287 165.664 474.603 185.98C494.92 206.297 506.334 233.852 506.334 262.583V308.896C506.334 339.771 490.084 383.998 470.259 407.533L460.481 419.125C444.502 438.056 449.486 462.133 471.829 473.021L625.121 547.825C641.777 555.95 655.292 577.427 655.292 596.115V614.667C655.292 621.85 652.438 628.738 647.359 633.818C642.28 638.897 635.391 641.75 628.209 641.75H167.792C160.609 641.75 153.72 638.897 148.641 633.818C143.562 628.738 140.708 621.85 140.708 614.667Z" fill="#EC361E"/>
</svg>
