<svg width="796" height="796" viewBox="0 0 796 796" fill="none" xmlns="http://www.w3.org/2000/svg">
<circle cx="398" cy="398" r="398" fill="#FCF9CE"/>
<path d="M263.199 211.708C263.192 225.787 257.593 239.286 247.633 249.236C237.673 259.186 224.168 264.772 210.089 264.765C196.011 264.758 182.512 259.159 172.561 249.199C162.611 239.239 157.025 225.734 157.032 211.655C157.04 197.577 162.639 184.078 172.599 174.127C182.559 164.177 196.064 158.591 210.142 158.598C224.221 158.606 237.72 164.205 247.67 174.165C257.62 184.125 263.206 197.63 263.199 211.708ZM264.792 304.073H158.625V636.375H264.792V304.073ZM432.535 304.073H326.899V636.375H431.473V461.996C431.473 364.854 558.077 355.83 558.077 461.996V636.375H662.917V425.9C662.917 262.138 475.532 268.242 431.473 348.663L432.535 304.073Z" fill="#EC361E"/>
</svg>
