<svg width="796" height="796" viewBox="0 0 796 796" fill="none" xmlns="http://www.w3.org/2000/svg">
<circle cx="398" cy="398" r="398" fill="#FCF9CE"/>
<path d="M531.343 459.167C533.79 438.982 535.625 418.797 535.625 398C535.625 377.203 533.79 357.018 531.343 336.833H634.715C639.608 356.407 642.667 376.898 642.667 398C642.667 419.103 639.608 439.593 634.715 459.167M477.211 629.21C495.561 595.262 509.629 558.563 519.416 520.333H609.637C580.006 571.355 532.998 610.004 477.211 629.21ZM469.565 459.167H326.435C323.377 438.982 321.542 418.797 321.542 398C321.542 377.203 323.377 356.713 326.435 336.833H469.565C472.317 356.713 474.458 377.203 474.458 398C474.458 418.797 472.317 438.982 469.565 459.167ZM398 641.443C372.616 604.743 352.125 564.068 339.586 520.333H456.414C443.875 564.068 423.384 604.743 398 641.443ZM275.667 275.667H186.363C215.682 224.502 262.658 185.79 318.483 166.79C300.133 200.738 286.371 237.438 275.667 275.667ZM186.363 520.333H275.667C286.371 558.563 300.133 595.262 318.483 629.21C262.768 610.013 215.854 571.352 186.363 520.333ZM161.285 459.167C156.392 439.593 153.333 419.103 153.333 398C153.333 376.898 156.392 356.407 161.285 336.833H264.657C262.21 357.018 260.375 377.203 260.375 398C260.375 418.797 262.21 438.982 264.657 459.167M398 154.251C423.384 190.951 443.875 231.933 456.414 275.667H339.586C352.125 231.933 372.616 190.951 398 154.251ZM609.637 275.667H519.416C509.829 237.793 495.656 201.23 477.211 166.79C533.484 186.058 580.277 224.898 609.637 275.667ZM398 92.1667C228.874 92.1667 92.1665 229.792 92.1665 398C92.1665 479.112 124.388 556.902 181.743 614.257C210.142 642.656 243.857 665.184 280.962 680.553C318.068 695.923 357.837 703.833 398 703.833C479.112 703.833 556.902 671.612 614.257 614.257C671.612 556.902 703.833 479.112 703.833 398C703.833 357.837 695.923 318.068 680.553 280.963C665.183 243.857 642.656 210.142 614.257 181.743C585.857 153.344 552.143 130.816 515.037 115.447C477.932 100.077 438.162 92.1667 398 92.1667Z" fill="#EC361E"/>
</svg>
